<?xml version="1.0" encoding="utf-8"?>
<!-- Generator: Adobe Illustrator 24.1.1, SVG Export Plug-In . SVG Version: 6.00 Build 0)  -->
<svg version="1.1" id="Layer_1" xmlns="http://www.w3.org/2000/svg" xmlns:xlink="http://www.w3.org/1999/xlink" width="26px" height="26px"
	 viewBox="0 0 512 512" style="enable-background:new 0 0 512 512;" xml:space="preserve">
<g>
	<path d="M230.7,0c-9.1,0.3-18,4.6-25.5,12.9c-4.2,4.7-7.7,9.8-10.6,15.4c-7.5,14.2-9,30.2-11.8,45.7c-5.3,29.1-10.4,58.2-15.5,87.3
		c-0.6,3.4-2,4.8-5.2,5.7c-37.7,11.9-75.5,23.7-113,36c-8.3,2.7-16.5,6.2-23.7,10.8c-22.3,14.2-25.6,37.4-8.9,57.8
		c7.4,9,16.9,15.2,27.4,19.9c23.5,10.5,47,20.8,70.4,31.4l1.1,0.4h-0.1l27.9,11.4v1.5c-4.3,43.3-8.3,86.7-12.4,130.1
		c-0.8,8.9-0.3,17.7,2.9,26.3c6.8,18.5,22.7,24.4,40.1,14.9c7.9-4.3,14.3-10.6,20-17.4c29.3-34.7,58.6-69.3,87.7-104
		c2.3-2.8,4.3-3.2,7.7-2.1c7.4,2.5,14.8,4.9,22.3,7.4h0.1l1.5,0.7l3.1,0.9c26.6,8.8,57.2,16.5,83.7,25.3c8.6,2.8,13.3,3.5,22.3,2.1
		c6.7-1,12.7-1.3,17.7-5c12.8-7.1,21.3-20.4,21.1-35.9c-0.1-9.1-3.3-17.3-7.5-25.2C436,321,418.6,287.8,401,254.7
		c-1.7-3.2-1.6-5.2,0.8-8c29.4-34.4,58.8-69,88.2-103.6c5.7-6.8,10.9-14,13.9-22.6c6.6-18.7-1.9-33.5-21.3-37.1
		c-8.8-1.5-17.7-1-26.3,1.4C414.1,96,372,107.1,330,118.4c-3.8,1-5.6,0.3-7.6-3.1c-17-28.7-34.3-57.3-51.7-85.7
		c-3.9-6.6-8.6-12.7-13.9-18.2C248.9,3.6,239.7-0.2,230.7,0L230.7,0z M234.3,79c1.7,1.2,3.1,2.7,4,4.5
		c18.6,30.8,37.2,61.7,55.7,92.6c1.5,2.5,2.9,3.3,5.9,2.5c32.6-8.7,65.1-17.3,97.7-25.9c7.8-2.1,15.7-4.1,23.6-6.2
		c-0.3,1.6-1.1,3.1-2.2,4.3c-26.8,31.6-53.7,63.2-80.6,94.7c-2.3,2.8-2.6,4.8-0.9,7.9c20,38.5,37.7,70.6,53.3,101.6L312,333.2
		c-11.5-3.8-23-7.7-34.5-11.5c-3.4-1.2-5.3-0.7-7.7,2.1c-26.6,31.7-53.4,63.4-80.2,95.1c-1,1.3-2.3,2.3-3.8,2.8
		c0.8-8,1.4-16.1,2.2-24.2c3.2-33.6,6.3-67.1,9.7-100.7c-0.7-6.8,2.5-8.6-6.9-11.6c-31.8-12.7-71.3-28.2-102.7-40.7
		c1.4-1.3,3.2-2.3,5.1-2.8c38.3-12.2,76.7-24.3,115.1-36.4c2.7-0.8,4.3-1.9,4.5-4.9c0.3-3.2,1.1-6.3,1.6-9.4
		c5.2-29.1,10.3-58.2,15.5-87.3C231.3,95.4,232.8,87.3,234.3,79L234.3,79z"/>
</g>
</svg>
